<?xml version="1.0" encoding="UTF-8"?>
<svg id="Layer_1" data-name="Layer 1" xmlns="http://www.w3.org/2000/svg" version="1.1" viewBox="0 0 308 154">
  <defs>
    <style>
      .cls-1 {
        fill: #b5cce2;
        stroke-width: 0px;
      }
    </style>
  </defs>
  <path class="cls-1" d="M308,138.3v-7.5c-3.3,0-6-2.7-6-6s2.7-6,6-6v-7c-3.3,0-6-2.7-6-6s2.7-6,6-6v-7c-3.3,0-6-2.7-6-6s2.7-6,6-6v-7c-3.3,0-6-2.7-6-6s2.7-6,6-6v-7c-3.3,0-6-2.7-6-6s2.7-6,6-6v-7c-3.3,0-6-2.7-6-6s2.7-6,6-6v-7.5c-8.7,0-15.7-7-15.7-15.7H15.7c0,8.7-7,15.7-15.7,15.7v7.5c3.3,0,6,2.7,6,6s-2.7,6-6,6v7c3.3,0,6,2.7,6,6s-2.7,6-6,6v7c3.3,0,6,2.7,6,6s-2.7,6-6,6v7c3.3,0,6,2.7,6,6s-2.7,6-6,6v7c3.3,0,6,2.7,6,6s-2.7,6-6,6v7c3.3,0,6,2.7,6,6s-2.7,6-6,6v7.5c8.7,0,15.7,7,15.7,15.7h276.6c0-8.7,7-15.7,15.7-15.7Z"/>
</svg>