<?xml version="1.0" encoding="UTF-8"?>
<svg id="Layer_1" data-name="Layer 1" xmlns="http://www.w3.org/2000/svg" version="1.1" viewBox="0 0 308 154">
  <defs>
    <style>
      .cls-1, .cls-2, .cls-3, .cls-4, .cls-5, .cls-6 {
        stroke-width: 0px;
      }

      .cls-1, .cls-2, .cls-5 {
        fill: #0d3a60;
      }

      .cls-1, .cls-7 {
        isolation: isolate;
        opacity: .8;
      }

      .cls-2, .cls-7, .cls-6 {
        display: none;
      }

      .cls-3 {
        fill: #b5cce2;
      }

      .cls-4 {
        fill: #000;
      }

      .cls-7 {
        fill: none;
        stroke: #0d3a60;
        stroke-miterlimit: 10;
        stroke-width: .8px;
      }

      .cls-6 {
        fill: #ceb961;
      }
    </style>
  </defs>
  <rect class="cls-7" x="-43" y="498" width="435" height="215" rx="40" ry="40"/>
  <rect class="cls-2" x="-523" y="663" width="309" height="12"/>
  <rect class="cls-6" x="-523" y="535.8" width="309" height="115.3"/>
  <g>
    <path class="cls-3" d="M308,138.3v-7.5c-3.3,0-6-2.7-6-6s2.7-6,6-6v-7c-3.3,0-6-2.7-6-6s2.7-6,6-6v-7c-3.3,0-6-2.7-6-6s2.7-6,6-6v-7c-3.3,0-6-2.7-6-6s2.7-6,6-6v-7c-3.3,0-6-2.7-6-6s2.7-6,6-6v-7c-3.3,0-6-2.7-6-6s2.7-6,6-6v-7.5c-8.7,0-15.7-7-15.7-15.7H15.7c0,8.7-7,15.7-15.7,15.7v7.5c3.3,0,6,2.7,6,6s-2.7,6-6,6v7c3.3,0,6,2.7,6,6s-2.7,6-6,6v7c3.3,0,6,2.7,6,6s-2.7,6-6,6v7c3.3,0,6,2.7,6,6s-2.7,6-6,6v7c3.3,0,6,2.7,6,6s-2.7,6-6,6v7c3.3,0,6,2.7,6,6s-2.7,6-6,6v7.5c8.7,0,15.7,7,15.7,15.7h276.6c0-8.7,7-15.7,15.7-15.7h0Z"/>
    <rect class="cls-5" x="29.9" y="36.8" width="54.4" height="80.2" rx="5.3" ry="5.3"/>
    <path class="cls-1" d="M270.9,142.2H37.1c-8.1,0-14.8-6.6-14.8-14.8V26.6c0-8.1,6.6-14.8,14.8-14.8h233.7c8.1,0,14.8,6.6,14.8,14.8v100.9c0,8.1-6.6,14.8-14.8,14.8h.1ZM37.1,12.3c-7.9,0-14.2,6.4-14.2,14.2v100.9c0,7.9,6.4,14.2,14.2,14.2h233.7c7.9,0,14.2-6.4,14.2-14.2V26.6c0-7.9-6.4-14.2-14.2-14.2H37.1Z"/>
    <g>
      <path class="cls-4" d="M92.3,118.8v-7h2.4c.5,0,1,0,1.4.3s.6.4.8.8c.2.3.3.7.3,1.1s0,.9-.3,1.2-.5.6-1,.8l1.6,2.9h-1l-1.5-2.7h-1.7v2.7h-1ZM93.2,115.2h1.5c.6,0,.9,0,1.2-.4.2-.2.4-.6.4-1s0-.8-.4-1c-.2-.3-.6-.4-1.2-.4h-1.5v2.7h0Z"/>
      <path class="cls-4" d="M99.9,118.9c-.3,0-.6,0-.9-.2-.3,0-.5-.3-.6-.6s-.2-.5-.2-.9,0-.5.2-.7c0-.2.3-.3.5-.4s.4-.2.7-.2.5,0,.7,0h.8c.2,0,.3,0,.4,0,0,0,0,0,0-.3h0c0-.4,0-.6-.3-.8-.2-.2-.5-.3-.8-.3s-.7,0-.9.2c-.2.2-.4.3-.4.5l-.8-.3c0-.3.3-.6.5-.8.2-.2.5-.3.8-.4.3,0,.6,0,.8,0h.6c.2,0,.4,0,.7.3.2,0,.4.3.5.6s.2.6.2,1v3.5h-.8v-.7h0c0,0-.2.2-.3.4s-.3.2-.5.3c-.2,0-.5,0-.8,0h-.2ZM100,118.1c.3,0,.6,0,.8-.2s.4-.3.5-.5.2-.4.2-.6v-.7s0,0-.2,0h-1.1c-.2,0-.4,0-.6,0-.2,0-.3.2-.4.3,0,0-.2.3-.2.5s0,.5.3.6c.2,0,.5.2.8.2v.2Z"/>
      <path class="cls-4" d="M105.9,113.5v.7h-1.1v3.2c0,.2,0,.4,0,.5,0,0,.3.2.5.2h.4l.2.7h-.6c-.5,0-.8,0-1.1-.4s-.4-.6-.4-1v-3.2h-.8v-.7h.8v-1.3h.8v1.3h1.2Z"/>
      <path class="cls-4" d="M109.1,118.9c-.5,0-.9,0-1.3-.3-.4-.2-.7-.5-.9-.9-.2-.4-.3-.9-.3-1.4s0-1,.3-1.4c.2-.4.5-.7.8-1,.4-.2.8-.3,1.3-.3s.6,0,.8,0c.3,0,.5.2.7.4s.4.5.5.8.2.7.2,1.2v.4h-3.8c0,.6.2,1,.5,1.3s.7.4,1.1.4.6,0,.8-.2c.2,0,.4-.3.5-.6l.8.2c0,.4-.4.7-.7,1s-.8.4-1.4.4h0ZM107.5,115.7h2.9c0-.4-.2-.8-.4-1.1s-.6-.4-1-.4-.6,0-.8.2c-.2,0-.4.3-.5.6,0,.2-.2.5-.2.8h0Z"/>
      <path class="cls-4" d="M114.5,118.9c-.4,0-.8,0-1.2-.3-.3-.2-.6-.5-.8-.9s-.3-.9-.3-1.5,0-1,.3-1.4c.2-.4.5-.7.8-.9.3-.2.7-.3,1.2-.3s.6,0,.8.2c.2,0,.4.2.5.4s.2.3.2.4h0v-2.6h.8v7h-.8v-.8h0s0,.2-.3.4-.3.3-.5.4-.5.2-.8.2v-.3ZM114.6,118.1c.5,0,.8-.2,1.1-.6s.4-.8.4-1.4,0-1.1-.4-1.4-.6-.5-1.1-.5-.6,0-.8.3-.4.4-.5.7c0,.3-.2.6-.2,1s0,.7.2,1c0,.3.3.5.5.7s.5.3.8.3h0Z"/>
      <path class="cls-4" d="M121.3,118.8v-7h2.4c.5,0,1,0,1.4.3s.6.4.8.8c.2.3.3.7.3,1.1s0,.9-.3,1.2-.5.6-1,.8l1.6,2.9h-1l-1.5-2.7h-1.7v2.7h-1ZM122.2,115.2h1.5c.6,0,.9,0,1.2-.4.2-.2.4-.6.4-1s0-.8-.4-1c-.2-.3-.6-.4-1.2-.4h-1.5v2.7h0Z"/>
      <path class="cls-4" d="M132.1,117.5c-.3,0-.5,0-.8-.2-.2,0-.4-.3-.5-.5s-.2-.5-.2-.8,0-.5.2-.8c.1-.2.3-.4.5-.5s.5-.2.8-.2.5,0,.8.2c.2,0,.4.3.5.5s.2.5.2.8,0,.5-.2.8c-.1.2-.3.4-.5.5s-.5.2-.8.2Z"/>
      <path class="cls-4" d="M140.6,111.7v7h-.9v-6.2h0l-1.7,1.3v-1l1.5-1.1h1.1,0Z"/>
      <path class="cls-4" d="M142,117.3v-.7l3.1-4.9h1.1v4.8h1v.8h-1v1.4h-.9v-1.4h-3.3ZM145.3,116.5v-3.7h0l-2.3,3.6h2.4,0Z"/>
      <path class="cls-4" d="M150.7,118.8c-.5,0-.9,0-1.3-.3s-.6-.4-.8-.7-.3-.6-.3-1,0-.6.2-.8c.1-.3.3-.5.5-.6s.4-.3.7-.3h0c-.3,0-.6-.3-.8-.6-.2-.3-.3-.6-.3-1s0-.7.3-1c.2-.3.4-.5.8-.7.3-.2.7-.2,1.1-.2s.8,0,1.1.2.6.4.8.7c.2.3.3.6.3,1s-.1.7-.3,1-.5.5-.8.6h0c.3,0,.5.2.7.4s.4.4.5.6.2.5.2.8-.1.7-.3,1-.5.5-.9.7-.8.3-1.3.3h0ZM150.7,118.1c.5,0,.8,0,1.1-.3s.4-.5.4-.9,0-.5-.2-.7-.3-.4-.5-.5-.5-.2-.8-.2-.8,0-1.1.4-.4.6-.4,1,.1.7.4.9c.3.2.6.3,1.1.3ZM150.7,114.8c.4,0,.7,0,.9-.3.2-.2.4-.5.4-.9s-.1-.6-.4-.8-.5-.3-.9-.3-.7,0-.9.3c-.2.2-.4.5-.4.8s.1.6.4.9c.2.2.5.3.9.3Z"/>
      <path class="cls-4" d="M157.1,118.8v-5.3h.8v1c.1-.4.3-.6.6-.8s.6-.3.9-.3.6,0,.9.3.4.5.5.8c.1-.3.3-.6.6-.8s.6-.3,1-.3.6,0,.8.2.5.3.6.6.2.6.2,1v3.6h-.9v-3.5c0-.4-.1-.7-.3-.8s-.5-.2-.7-.2-.6,0-.8.3-.3.5-.3.8v3.4h-.8v-3.6c0-.3,0-.5-.3-.7s-.4-.3-.7-.3-.6,0-.8.3-.4.5-.4,1v3.3h-.9Z"/>
      <path class="cls-4" d="M166,112.6c-.2,0-.3,0-.4-.2s-.2-.2-.2-.4,0-.3.2-.4.3-.2.4-.2.3,0,.4.2.2.2.2.4,0,.3-.2.4-.3.2-.4.2ZM165.6,118.8v-5.3h.8v5.3h-.8Z"/>
      <path class="cls-4" d="M168.8,115.6v3.2h-.8v-5.3h.8v1c.2-.4.4-.6.7-.8s.6-.2.9-.2c.5,0,1,.2,1.3.5s.5.8.5,1.5v3.3h-.8v-3.3c0-.4-.1-.7-.3-1s-.5-.3-.9-.3-.7,0-1,.4-.4.6-.4,1Z"/>
      <path class="cls-4" d="M175.4,118.9c-.5,0-1,0-1.3-.4s-.6-.6-.7-1l.8-.2c0,.3.2.5.4.6s.5.2.8.2.7,0,.9-.2.3-.3.3-.6-.3-.6-.8-.7l-.9-.2c-.9-.2-1.4-.7-1.4-1.4s0-.6.3-.8.4-.4.7-.5.6-.2,1-.2,1,0,1.3.4.5.5.6.9l-.8.2c0-.2-.2-.4-.4-.5s-.4-.2-.8-.2-.6,0-.8.2-.3.3-.3.5,0,.4.2.5.4.2.7.3l.8.2c.5,0,.8.3,1.1.5s.3.5.3.9,0,.6-.3.8-.4.4-.7.6-.7.2-1.1.2h0Z"/>
      <path class="cls-4" d="M183.4,117.5c-.3,0-.5,0-.8-.2s-.4-.3-.5-.5-.2-.5-.2-.8,0-.5.2-.8.3-.4.5-.5.5-.2.8-.2.5,0,.8.2.4.3.5.5.2.5.2.8,0,.5-.2.8-.3.4-.5.5-.5.2-.8.2Z"/>
      <path class="cls-4" d="M189.1,118.8l2.6-7h1l2.6,7h-.9l-.7-2h-2.9l-.7,2h-1ZM191,116h2.3l-.5-1.4c0-.2-.2-.5-.3-.9s-.2-.8-.4-1.3c-.1.5-.3,1-.4,1.3s-.2.6-.3.8l-.5,1.4h0Z"/>
      <path class="cls-4" d="M196.4,118.8v-7h1.3l1.7,4.4c0,.2.1.4.2.7s.2.6.3.9c0-.3.2-.6.3-.9s.2-.5.3-.7l1.7-4.4h1.3v7h-.9v-6c-.1.4-.3.8-.4,1.2s-.2.7-.3.9l-1.6,4h-.8l-1.6-4c0-.2-.2-.5-.3-.9s-.3-.8-.4-1.2v6.1h-.9,0Z"/>
      <path class="cls-4" d="M208,118.8c-.6,0-1.1,0-1.6-.4s-.8-.7-1.1-1.2-.4-1.2-.4-1.9.1-1.4.4-1.9.6-1,1.1-1.2,1-.4,1.6-.4.9,0,1.3.3.7.4,1,.8.4.8.5,1.2h-.9c0-.3-.2-.6-.4-.8s-.4-.4-.7-.5-.6-.2-.9-.2-.8,0-1.1.3-.6.5-.8.9-.3.9-.3,1.5,0,1.1.3,1.5.5.7.8.9.7.3,1.1.3.6,0,.9-.2.5-.3.7-.5.3-.5.4-.8h.9c0,.5-.3.9-.5,1.2s-.6.6-1,.8-.8.3-1.3.3h0Z"/>
      <path class="cls-4" d="M217.1,118.9c-.8,0-1.4-.2-1.8-.5s-.7-.8-.7-1.4h.9c0,.3.1.5.3.7s.4.3.6.4.5,0,.8,0,.6,0,.9-.2.5-.3.6-.4.2-.4.2-.7,0-.4-.2-.6-.3-.3-.5-.3-.4-.2-.7-.2l-.8-.2c-.6-.2-1-.4-1.3-.7s-.5-.7-.5-1.1.1-.7.3-1,.5-.5.9-.7.8-.2,1.2-.2.9,0,1.2.2.6.4.8.7.3.6.3,1h-.9c0-.3-.2-.6-.5-.8s-.6-.3-1.1-.3-.8,0-1.1.3-.4.5-.4.8,0,.4.2.6.3.3.5.3.4,0,.6.2l.7.2c.2,0,.4,0,.6.2s.4.2.7.4.4.3.5.6.2.5.2.8,0,.7-.3,1-.5.6-.9.7-.8.3-1.4.3v-.2Z"/>
      <path class="cls-4" d="M222.5,118.9c-.3,0-.6,0-.9-.2s-.5-.3-.6-.6-.2-.5-.2-.9,0-.5.2-.7.3-.3.5-.4.4-.2.7-.2.5,0,.7,0h.8c.2,0,.3,0,.4,0s.1,0,.1-.3h0c0-.4,0-.6-.3-.8s-.5-.3-.8-.3-.7,0-.9.2-.4.3-.4.5l-.8-.3c.1-.3.3-.6.5-.8s.5-.3.8-.4.6,0,.8,0h.6c.2,0,.4,0,.7.3s.4.3.5.6.2.6.2,1v3.5h-.8v-.7h0c0,0-.2.2-.3.4s-.3.2-.5.3-.5,0-.8,0h-.2ZM222.6,118.1c.3,0,.6,0,.8-.2s.4-.3.5-.5.2-.4.2-.6v-.7s-.1,0-.2,0-.2,0-.4,0h-.7c-.2,0-.4,0-.6,0s-.3.2-.4.3-.2.3-.2.5.1.5.3.6.5.2.8.2v.2Z"/>
      <path class="cls-4" d="M227.3,115.6v3.2h-.8v-5.3h.8v1c.2-.4.4-.6.7-.8s.6-.2.9-.2c.5,0,1,.2,1.3.5s.5.8.5,1.5v3.3h-.8v-3.3c0-.4-.1-.7-.3-1s-.5-.3-.9-.3-.7,0-1,.4-.4.6-.4,1Z"/>
      <path class="cls-4" d="M234.2,113.5v.7h-1.1v3.2c0,.2,0,.4.1.5s.3.2.5.2h.4l.2.7h-.6c-.5,0-.8,0-1.1-.4s-.4-.6-.4-1v-3.2h-.8v-.7h.8v-1.3h.8v1.3h1.2Z"/>
      <path class="cls-4" d="M236.8,118.9c-.3,0-.6,0-.9-.2s-.5-.3-.6-.6-.2-.5-.2-.9,0-.5.2-.7.3-.3.5-.4.4-.2.7-.2.5,0,.7,0h.8c.2,0,.3,0,.4,0s.1,0,.1-.3h0c0-.4,0-.6-.3-.8s-.5-.3-.8-.3-.7,0-.9.2-.4.3-.4.5l-.8-.3c.1-.3.3-.6.5-.8s.5-.3.8-.4.6,0,.8,0h.6c.2,0,.4,0,.7.3s.4.3.5.6.2.6.2,1v3.5h-.8v-.7h0c0,0-.2.2-.3.4s-.3.2-.5.3-.5,0-.8,0h-.2ZM236.9,118.1c.3,0,.6,0,.8-.2s.4-.3.5-.5.2-.4.2-.6v-.7s-.1,0-.2,0-.2,0-.4,0h-.7c-.2,0-.4,0-.6,0s-.3.2-.4.3-.2.3-.2.5.1.5.3.6.5.2.8.2v.2Z"/>
      <path class="cls-4" d="M243.6,118.8v-7h1.3l1.7,4.4c0,.2.1.4.2.7s.2.6.3.9c0-.3.2-.6.3-.9s.2-.5.3-.7l1.7-4.4h1.3v7h-.9v-6c-.1.4-.3.8-.4,1.2s-.2.7-.3.9l-1.6,4h-.8l-1.6-4c0-.2-.2-.5-.3-.9s-.3-.8-.4-1.2v6.1h-.9,0Z"/>
      <path class="cls-4" d="M254.3,118.9c-.5,0-.9,0-1.3-.3s-.6-.5-.8-1-.3-.9-.3-1.4.1-1,.3-1.4.5-.7.8-1,.8-.3,1.3-.3.9,0,1.3.3c.4.2.6.5.8,1s.3.9.3,1.4-.1,1-.3,1.4-.5.7-.8,1-.8.3-1.3.3h0ZM254.3,118.1c.4,0,.6,0,.9-.3s.4-.4.5-.7.2-.6.2-1,0-.7-.2-1-.3-.5-.5-.7-.5-.3-.9-.3-.6,0-.9.3-.4.4-.5.7-.2.6-.2,1,0,.7.2,1,.3.5.5.7.5.3.9.3Z"/>
      <path class="cls-4" d="M258.6,118.8c-.2,0-.3,0-.5-.2s-.2-.3-.2-.5,0-.3.2-.5.3-.2.5-.2.3,0,.5.2.2.3.2.5,0,.3-.2.5-.3.2-.5.2Z"/>
      <path class="cls-4" d="M261.4,118.8c-.2,0-.3,0-.5-.2s-.2-.3-.2-.5,0-.3.2-.5.3-.2.5-.2.3,0,.5.2.2.3.2.5,0,.3-.2.5-.3.2-.5.2Z"/>
      <path class="cls-4" d="M264.2,118.8c-.2,0-.3,0-.5-.2s-.2-.3-.2-.5,0-.3.2-.5.3-.2.5-.2.3,0,.5.2.2.3.2.5,0,.3-.2.5-.3.2-.5.2Z"/>
    </g>
    <g>
      <path class="cls-4" d="M91.7,42.1l2.3-7h2.6l2.4,7h-2.2l-.4-1.3h-2.2l-.4,1.3h-2.1ZM94.6,39.3h1.3c0-.4-.3-.9-.4-1.3,0-.5-.2-.9-.3-1.4,0,.5-.2.9-.3,1.4,0,.5-.2.9-.3,1.3Z"/>
      <path class="cls-4" d="M101.6,42.1v-7h3l.6,2.2c0,.2,0,.4.2.7s0,.6.2.9c0,.3,0,.6.2.9,0-.3,0-.6.2-.9,0-.3,0-.6.2-.9s0-.5.2-.7l.6-2.2h3v7h-1.9v-5.5c0,.4-.2.7-.2,1.1s-.2.7-.3,1,0,.5-.2.7l-.8,2.7h-1.6l-.8-2.7c0-.2,0-.4-.2-.7,0-.3-.2-.6-.2-.9s-.2-.7-.2-1v5.4h-2Z"/>
      <path class="cls-4" d="M112.3,42.1c-.5,0-.9,0-1.2-.4-.3-.3-.5-.6-.5-1.2s0-.7.3-.9c.2-.2.4-.4.7-.5s.6-.2,1-.2.8,0,.9,0c.2,0,.3-.2.3-.3h0c0-.2,0-.3-.2-.3s-.3,0-.4,0-.3,0-.5,0-.2.2-.2.4l-1.7-.2c0-.3.2-.6.4-.8.2-.2.5-.4.8-.6s.8-.2,1.3-.2.9,0,1.3.2.7.4.9.6c.2.3.3.6.3.9v3.6h-1.8v-.7h0c-.2.3-.4.5-.6.6s-.6.2-.9.2h-.2ZM112.9,40.9c.2,0,.4,0,.6-.2.2,0,.3-.3.3-.6v-.4c-.2,0-.4,0-.8.2-.2,0-.4,0-.5.2,0,0-.2.2-.2.3s0,.3.2.3.2,0,.4,0h0Z"/>
      <path class="cls-4" d="M118.5,42.1c-.4,0-.7,0-1-.3s-.6-.5-.8-.9-.3-.9-.3-1.5,0-1.2.3-1.6.5-.7.8-.9.6-.3,1-.3.7,0,1,.3c.2.2.4.4.5.7h0v-2.7h1.9v7h-1.9v-.9h0c0,.3-.3.5-.5.7s-.6.3-.9.3h0ZM119.2,40.7c.3,0,.5,0,.6-.3s.2-.5.2-.9,0-.7-.2-.9c0-.2-.4-.3-.6-.3s-.5,0-.6.3-.2.5-.2.9,0,.7.2.9c0,.2.3.3.6.3Z"/>
      <path class="cls-4" d="M124.7,42.1v-7h3l.6,2.2c0,.2.1.4.2.7s.1.6.2.9c0,.3.1.6.2.9,0-.3.1-.6.2-.9,0-.3.1-.6.2-.9s.1-.5.2-.7l.6-2.2h3v7h-1.9v-5.5c0,.4-.2.7-.2,1.1s-.2.7-.3,1-.1.5-.2.7l-.8,2.7h-1.6l-.8-2.7c0-.2,0-.4-.2-.7,0-.3-.2-.6-.2-.9s-.2-.7-.2-1v5.4h-2Z"/>
      <path class="cls-4" d="M135.5,42.1c-.5,0-.9,0-1.2-.4-.3-.3-.5-.6-.5-1.2s0-.7.3-.9c.2-.2.4-.4.7-.5s.6-.2,1-.2.8,0,.9,0c.2,0,.3-.2.3-.3h0c0-.2,0-.3-.2-.3s-.3,0-.4,0-.3,0-.5,0-.2.2-.2.4l-1.7-.2c0-.3.2-.6.4-.8s.5-.4.8-.6.8-.2,1.3-.2.9,0,1.3.2c.4.2.7.4.9.6.2.3.3.6.3.9v3.6h-1.8v-.7h0c-.2.3-.4.5-.6.6s-.6.2-.9.2h-.2ZM136.1,40.9c.2,0,.4,0,.6-.2.2,0,.3-.3.3-.6v-.4c-.2,0-.4,0-.8.2-.2,0-.4,0-.5.2-.1,0-.2.2-.2.3s0,.3.2.3.2,0,.4,0h0Z"/>
      <path class="cls-4" d="M139.4,42.1l1.6-2.7-1.5-2.6h2l.3.7c0,.2.2.3.2.5s.1.3.2.5c0-.2.2-.3.2-.5s.2-.3.2-.5l.3-.7h1.9l-1.5,2.6,1.6,2.7h-2l-.4-.8c0-.2-.2-.3-.2-.5s-.2-.3-.2-.5c0,.2-.1.3-.2.5,0,.2-.2.3-.2.5l-.4.8h-1.9Z"/>
      <path class="cls-4" d="M147.5,42.1v-7h3l.6,2.2c0,.2.1.4.2.7s.1.6.2.9c0,.3.1.6.2.9,0-.3.1-.6.2-.9,0-.3.1-.6.2-.9s.1-.5.2-.7l.6-2.2h3v7h-1.9v-5.5c0,.4-.2.7-.2,1.1s-.2.7-.3,1-.1.5-.2.7l-.8,2.7h-1.6l-.8-2.7c0-.2-.1-.4-.2-.7,0-.3-.2-.6-.2-.9s-.2-.7-.2-1v5.4h-2Z"/>
      <path class="cls-4" d="M158.3,42.1c-.5,0-.9,0-1.2-.4-.3-.3-.5-.6-.5-1.2s0-.7.3-.9c.2-.2.4-.4.7-.5s.6-.2,1-.2.8,0,.9,0c.2,0,.3-.2.3-.3h0c0-.2,0-.3-.2-.3s-.3,0-.4,0-.3,0-.5,0-.2.2-.2.4l-1.7-.2c0-.3.2-.6.4-.8s.5-.4.8-.6.8-.2,1.3-.2.9,0,1.3.2c.4.2.7.4.9.6.2.3.3.6.3.9v3.6h-1.8v-.7h0c-.2.3-.4.5-.6.6s-.6.2-.9.2h-.2ZM158.9,40.9c.2,0,.4,0,.6-.2.2,0,.3-.3.3-.6v-.4c-.2,0-.4,0-.8.2-.2,0-.4,0-.5.2-.1,0-.2.2-.2.3s0,.3.2.3.2,0,.4,0h0Z"/>
      <path class="cls-4" d="M162.6,42.1v-5.3h1.8v1h0c0-.4.2-.6.5-.8s.5-.3.7-.3h.5v1.6h-.7c-.3,0-.5,0-.7.3s-.3.4-.3.7v2.7h-1.9,0Z"/>
      <path class="cls-4" d="M168,42.1c-.5,0-.9,0-1.2-.4s-.5-.6-.5-1.2,0-.7.3-.9.4-.4.7-.5.6-.2,1-.2.8,0,.9,0,.3-.2.3-.3h0c0-.2,0-.3-.2-.3s-.3,0-.4,0-.3,0-.5,0-.2.2-.2.4l-1.7-.2c0-.3.2-.6.4-.8s.5-.4.8-.6.8-.2,1.3-.2.9,0,1.3.2.7.4.9.6.3.6.3.9v3.6h-1.8v-.7h0c-.2.3-.4.5-.6.6s-.6.2-.9.2h-.2ZM168.6,40.9c.2,0,.4,0,.6-.2s.3-.3.3-.6v-.4c-.2,0-.4,0-.8.2-.2,0-.4,0-.5.2s-.2.2-.2.3,0,.3.2.3.2,0,.4,0h0Z"/>
      <path class="cls-4" d="M175.4,36.8v1.4h-.9v2.2c0,.2.1.3.4.3s.1,0,.2,0h.2l.2,1.4c-.2,0-.4,0-.6,0s-.4,0-.5,0c-1.2,0-1.8-.5-1.8-1.6v-2.4h-.7v-1.4h.7v-1.3h1.9v1.3h.9Z"/>
      <path class="cls-4" d="M178.1,39.1v3h-1.9v-7h1.8v2.8c.1-.3.3-.6.6-.8s.6-.3,1-.3.7,0,1,.3.5.4.6.7.2.6.2,1v3.4h-1.9v-3c0-.3,0-.5-.2-.6s-.3-.2-.6-.2-.4,0-.6.2-.2.4-.2.6h.2Z"/>
      <path class="cls-4" d="M185,42.2c-.6,0-1.1,0-1.5-.3s-.7-.5-.9-1-.3-.9-.3-1.4.1-1,.3-1.4.5-.7.9-1,.9-.3,1.5-.3,1.1,0,1.5.3.7.5.9,1,.3.9.3,1.4-.1,1-.3,1.4-.5.7-.9,1-.9.3-1.5.3ZM185,40.7c.2,0,.4,0,.6-.3s.2-.6.2-1,0-.7-.2-1-.3-.3-.6-.3-.4,0-.6.3-.2.5-.2,1,0,.7.2,1,.3.3.6.3Z"/>
      <path class="cls-4" d="M190.4,39.1v3h-1.9v-5.3h1.8v1.2c.2-.4.4-.7.6-.9s.6-.4,1.1-.4.7,0,1,.3.5.4.6.7.2.6.2,1v3.4h-1.9v-3c0-.3,0-.5-.2-.6s-.3-.2-.6-.2-.4,0-.6.2-.2.4-.2.6h0Z"/>
      <path class="cls-4" d="M92.4,63.8v-14.1h9.9v3.1h-6.1v3.2h5.5v3h-5.5v4.8s-3.8,0-3.8,0Z"/>
      <path class="cls-4" d="M106.8,63.9c-.7,0-1.4-.2-1.9-.5-.6-.3-1-.8-1.3-1.4-.3-.6-.5-1.3-.5-2v-6.7h3.8v5.9c0,.5,0,.9.4,1.2s.6.4,1.1.4.8,0,1.1-.4c.3-.3.4-.7.4-1.2v-5.9h3.8v10.5h-3.6v-2.4c-.3.7-.7,1.3-1.2,1.8s-1.2.7-2.1.7Z"/>
      <path class="cls-4" d="M115.6,63.8v-10.5h3.7v2h0c.2-.7.5-1.3.9-1.6s.9-.5,1.5-.5.6,0,1,.2v3.2c-.2,0-.4,0-.7,0h-.7c-.6,0-1,.2-1.4.5-.4.4-.6.8-.6,1.5v5.5h-3.8v-.2Z"/>
      <path class="cls-4" d="M124,63.8v-10.5h3.8v10.5h-3.8ZM125.9,52.2c-.5,0-1-.2-1.3-.5-.4-.3-.5-.7-.5-1.2s.2-.9.5-1.2c.4-.3.8-.5,1.3-.5s1,.2,1.3.5c.4.3.5.7.5,1.2s-.2.9-.5,1.2c-.4.3-.8.5-1.3.5Z"/>
      <path class="cls-4" d="M134.7,64c-1.1,0-2.1-.2-2.9-.7-.8-.5-1.4-1.1-1.9-1.9-.4-.8-.6-1.8-.6-2.8s.2-2,.6-2.8c.4-.8,1.1-1.4,1.9-1.9.8-.5,1.8-.7,2.9-.7s2.1.2,2.9.7c.8.5,1.4,1.1,1.9,1.9.4.8.6,1.8.6,2.8s-.2,2-.6,2.8c-.4.8-1.1,1.5-1.9,1.9-.8.5-1.8.7-2.9.7ZM134.7,61.2c.5,0,.9-.2,1.2-.7s.4-1.1.4-1.9-.1-1.5-.4-1.9c-.3-.4-.7-.7-1.2-.7s-.9.2-1.2.7c-.3.4-.4,1.1-.4,1.9s.1,1.5.4,1.9.7.7,1.2.7Z"/>
      <path class="cls-4" d="M146.4,64c-1.4,0-2.6-.3-3.5-.9-.9-.6-1.5-1.4-1.7-2.5l3.5-.5c.1.4.3.7.6,1,.3.2.7.3,1.2.3.8,0,1.2-.2,1.2-.7s-.4-.6-1.2-.8l-1.9-.3c-2.1-.4-3.2-1.4-3.2-3.1s.4-1.9,1.3-2.5,2.1-.9,3.6-.9,2.5.3,3.4.8,1.4,1.3,1.5,2.2l-3.3.5c0-.3-.3-.6-.5-.8-.3-.2-.6-.2-1-.2s-.6,0-.8.2c-.2,0-.3.3-.3.5s0,.3.2.4c.1,0,.4.2.8.3l2.2.4c2.1.4,3.2,1.3,3.2,2.8s-.2,1.4-.7,2c-.4.6-1.1,1-1.8,1.3-.8.3-1.7.4-2.7.4h-.1Z"/>
      <path class="cls-4" d="M156,64c-1,0-1.8-.3-2.5-.8-.6-.5-1-1.3-1-2.3s.2-1.4.5-1.9.8-.8,1.4-1.1,1.2-.4,2-.4,1.5-.2,1.9-.3.6-.3.6-.6h0c0-.3-.1-.5-.3-.7-.2,0-.5-.2-.9-.2s-.7,0-.9.2c-.3.2-.4.4-.5.7l-3.4-.3c.1-.6.3-1.1.7-1.6s.9-.9,1.6-1.2c.7-.3,1.5-.4,2.5-.4s1.9.2,2.6.5c.7.3,1.3.7,1.7,1.2s.6,1.1.6,1.8v7.2h-3.5v-1.5h0c-.3.6-.7,1-1.2,1.3s-1.1.4-1.8.4h-.1ZM157.2,61.6c.4,0,.8,0,1.2-.4.3-.3.5-.6.5-1.1v-.9c-.4.2-.9.3-1.5.4-.4,0-.8.2-1,.4s-.3.4-.3.7.1.5.3.7.5.2.8.2Z"/>
      <path class="cls-4" d="M167.2,57.6c-.6,0-1-.2-1.4-.5-.4-.4-.6-.8-.6-1.4s.2-1,.6-1.4c.4-.4.8-.5,1.4-.5s1,.2,1.4.5c.4.4.6.8.6,1.4s-.2,1-.6,1.4c-.4.4-.8.5-1.4.5ZM167.2,64c-.6,0-1-.2-1.4-.5-.4-.4-.6-.8-.6-1.4s.2-1,.6-1.4c.4-.4.8-.5,1.4-.5s1,.2,1.4.5c.4.4.6.8.6,1.4s-.2,1-.6,1.4c-.4.4-.8.5-1.4.5Z"/>
      <path class="cls-4" d="M175.1,63.8l4.6-14.1h5.2l4.7,14.1h-4.3l-.8-2.7h-4.3l-.8,2.7h-4.3,0ZM180.9,58.3h2.7c-.3-.9-.5-1.7-.7-2.6-.2-.9-.4-1.8-.7-2.7-.2.9-.4,1.8-.6,2.7-.2.9-.4,1.8-.7,2.6Z"/>
      <path class="cls-4" d="M194.7,63.8v-14.1h6l1.3,4.4c.1.3.2.8.3,1.3.1.6.2,1.2.4,1.8.1.6.2,1.3.3,1.9.1-.6.2-1.2.3-1.9.1-.6.3-1.2.4-1.8.1-.6.2-1,.3-1.3l1.2-4.4h6v14.1h-3.9v-11c-.2.7-.3,1.4-.5,2.1-.2.7-.3,1.4-.5,2s-.3,1.1-.4,1.5l-1.6,5.4h-3.2l-1.7-5.4c-.1-.4-.2-.8-.4-1.4-.2-.6-.3-1.2-.5-1.9s-.3-1.4-.5-2.1v10.7h-3.9.6Z"/>
      <path class="cls-4" d="M216.2,64c-1,0-1.8-.3-2.5-.8-.6-.5-1-1.3-1-2.3s.2-1.4.5-1.9.8-.8,1.4-1.1,1.2-.4,2-.4,1.5-.2,1.9-.3.6-.3.6-.6h0c0-.3-.1-.5-.3-.7-.2,0-.5-.2-.9-.2s-.7,0-.9.2c-.3.2-.4.4-.5.7l-3.4-.3c.1-.6.3-1.1.7-1.6s.9-.9,1.6-1.2c.7-.3,1.5-.4,2.5-.4s1.9.2,2.6.5c.7.3,1.3.7,1.7,1.2s.6,1.1.6,1.8v7.2h-3.5v-1.5h0c-.3.6-.7,1-1.2,1.3s-1.1.4-1.8.4h-.1ZM217.4,61.6c.4,0,.8,0,1.2-.4.3-.3.5-.6.5-1.1v-.9c-.4.2-.9.3-1.5.4-.4,0-.8.2-1,.4s-.3.4-.3.7.1.5.3.7.5.2.8.2Z"/>
      <path class="cls-4" d="M228.5,63.9c-.7,0-1.4-.2-2.1-.6-.6-.4-1.1-1-1.5-1.8s-.6-1.8-.6-3,.2-2.3.6-3.1c.4-.8.9-1.4,1.5-1.8.6-.4,1.3-.6,2-.6s1.4.2,1.9.6c.5.4.8.9,1,1.4h0v-5.4h3.8v14.1h-3.8v-1.7h0c-.2.5-.6,1-1.1,1.3-.5.4-1.1.5-1.9.5h.2ZM229.9,61c.5,0,.9-.2,1.2-.7.3-.4.4-1.1.4-1.8s-.1-1.4-.4-1.8c-.3-.4-.7-.7-1.2-.7s-.9.2-1.2.7c-.3.4-.4,1.1-.4,1.8s.1,1.4.4,1.8c.3.4.7.7,1.2.7Z"/>
      <path class="cls-4" d="M92.4,85.5v-14.1h6l1.3,4.4c0,.3.2.8.3,1.3,0,.6.2,1.2.4,1.8,0,.6.2,1.3.3,1.9,0-.6.2-1.2.3-1.9,0-.6.3-1.2.4-1.8,0-.6.2-1,.3-1.3l1.2-4.4h6v14.1h-3.8v-11c-.2.7-.3,1.4-.5,2.1s-.3,1.4-.5,2-.3,1.1-.4,1.5l-1.6,5.4h-3.2l-1.7-5.4c0-.4-.2-.8-.4-1.4-.2-.6-.3-1.2-.5-1.9-.2-.7-.3-1.4-.5-2.1v10.7h-3.9.5Z"/>
      <path class="cls-4" d="M113.9,85.7c-1,0-1.8-.3-2.5-.8-.6-.5-1-1.3-1-2.3s.2-1.4.5-1.9.8-.8,1.4-1.1,1.2-.4,2-.4,1.5-.2,1.9-.3c.4,0,.6-.3.6-.6h0c0-.3,0-.5-.3-.7-.2,0-.5-.2-.9-.2s-.7,0-.9.2c-.3.2-.4.4-.5.7l-3.4-.3c0-.6.3-1.1.7-1.6.4-.5.9-.9,1.6-1.2.7-.3,1.5-.4,2.5-.4s1.9.2,2.6.5,1.3.7,1.7,1.2c.4.5.6,1.1.6,1.8v7.2h-3.5v-1.5h0c-.3.6-.7,1-1.2,1.3s-1.1.4-1.8.4h0ZM115.1,83.3c.4,0,.8,0,1.2-.4.3-.3.5-.6.5-1.1v-.9c-.4.2-.9.3-1.5.4-.4,0-.8.2-1,.4-.2.2-.3.4-.3.7s0,.5.3.7c.2.2.5.2.8.2Z"/>
      <path class="cls-4" d="M121.7,85.5l3.2-5.4-3-5.1h4l.7,1.3c.2.3.3.7.4,1s.3.7.4,1c.2-.3.3-.7.5-1s.3-.7.5-1l.7-1.3h3.9l-3.1,5.1,3.2,5.4h-3.9l-.8-1.7c-.2-.3-.3-.7-.5-1s-.3-.7-.5-1c0,.3-.3.7-.4,1s-.3.7-.5,1l-.8,1.7h-4Z"/>
      <path class="cls-4" d="M143.7,85.7c-1.2,0-2.3-.2-3.2-.5-.9-.4-1.6-.9-2.1-1.7-.5-.8-.8-1.7-.8-2.9h3.6c0,.6.3,1.1.7,1.5.4.3,1,.5,1.7.5s1.1,0,1.4-.3c.3-.2.5-.5.5-.9s-.2-.6-.5-.8c-.3-.2-.9-.4-1.6-.6l-1.4-.3c-1.2-.3-2.2-.7-2.9-1.4-.7-.6-1.1-1.5-1.1-2.6s.2-1.7.7-2.3c.5-.7,1.2-1.2,2-1.6.9-.4,1.8-.6,2.9-.6s2.1.2,2.9.6c.8.4,1.5.9,1.9,1.6s.7,1.5.7,2.4h-3.7c0-.5-.2-.8-.5-1.1-.3-.3-.8-.4-1.4-.4s-1,0-1.3.3c-.3.2-.4.5-.4.8s.1.6.4.8c.3.2.8.4,1.4.5l1.2.2c1.6.3,2.7.9,3.4,1.6s1,1.6,1,2.7-.5,2.5-1.5,3.2-2.4,1.1-4.2,1.1l.2.2Z"/>
      <path class="cls-4" d="M153.8,85.7c-1,0-1.8-.3-2.5-.8-.6-.5-1-1.3-1-2.3s.2-1.4.5-1.9.8-.8,1.4-1.1,1.2-.4,2-.4,1.5-.2,1.9-.3c.4,0,.6-.3.6-.6h0c0-.3-.1-.5-.3-.7-.2,0-.5-.2-.9-.2s-.7,0-.9.2c-.3.2-.4.4-.5.7l-3.4-.3c.1-.6.3-1.1.7-1.6s.9-.9,1.6-1.2c.7-.3,1.5-.4,2.5-.4s1.9.2,2.6.5c.7.3,1.3.7,1.7,1.2s.6,1.1.6,1.8v7.2h-3.5v-1.5h0c-.3.6-.7,1-1.2,1.3s-1.1.4-1.8.4h-.1ZM155,83.3c.4,0,.8,0,1.2-.4.3-.3.5-.6.5-1.1v-.9c-.4.2-.9.3-1.5.4-.4,0-.8.2-1,.4-.2.2-.3.4-.3.7s.1.5.3.7.5.2.8.2Z"/>
      <path class="cls-4" d="M167.4,89.7c-1.4,0-2.6-.3-3.5-.8s-1.4-1.3-1.6-2.2l3.3-.5c0,.3.2.5.5.7s.7.2,1.2.2c1.2,0,1.8-.5,1.8-1.6v-1.8h-.3c-.2.5-.5.9-1,1.2-.5.3-1.1.4-1.8.4s-1.4-.2-2.1-.5c-.6-.3-1.1-.9-1.5-1.7-.4-.8-.6-1.7-.6-3s.2-2.3.6-3.1c.4-.8.9-1.4,1.5-1.8s1.3-.6,2-.6,1.4.2,1.9.6.9.9,1.1,1.4h0v-1.8h3.8v10.2c0,1-.2,1.8-.7,2.5s-1.1,1.2-1.9,1.5-1.8.5-2.9.5l.2.2ZM167.5,82.7c.5,0,.9-.2,1.2-.6s.4-1,.4-1.8-.1-1.4-.4-1.8c-.3-.4-.7-.7-1.2-.7s-.9.2-1.2.7c-.3.4-.4,1.1-.4,1.8s.1,1.4.4,1.8c.3.4.7.6,1.2.6Z"/>
      <path class="cls-4" d="M177.8,85.7c-1,0-1.8-.3-2.5-.8-.6-.5-1-1.3-1-2.3s.2-1.4.5-1.9.8-.8,1.4-1.1,1.2-.4,2-.4,1.5-.2,1.9-.3c.4,0,.6-.3.6-.6h0c0-.3-.1-.5-.3-.7-.2,0-.5-.2-.9-.2s-.7,0-.9.2c-.3.2-.4.4-.5.7l-3.4-.3c.1-.6.3-1.1.7-1.6s.9-.9,1.6-1.2c.7-.3,1.5-.4,2.5-.4s1.9.2,2.6.5c.7.3,1.3.7,1.7,1.2s.6,1.1.6,1.8v7.2h-3.5v-1.5h0c-.3.6-.7,1-1.2,1.3s-1.1.4-1.8.4h-.1ZM179,83.3c.4,0,.8,0,1.2-.4.3-.3.5-.6.5-1.1v-.9c-.4.2-.9.3-1.5.4-.4,0-.8.2-1,.4-.2.2-.3.4-.3.7s.1.5.3.7.5.2.8.2Z"/>
      <path class="cls-4" d="M189,85.8c-.6,0-1-.2-1.4-.5-.4-.4-.6-.8-.6-1.4s.2-1,.6-1.4c.4-.4.8-.5,1.4-.5s1,.2,1.4.5c.4.4.6.8.6,1.4s-.2,1-.6,1.4c-.4.4-.8.5-1.4.5Z"/>
      <path class="cls-4" d="M196.2,85.8c-.6,0-1-.2-1.4-.5-.4-.4-.6-.8-.6-1.4s.2-1,.6-1.4c.4-.4.8-.5,1.4-.5s1,.2,1.4.5c.4.4.6.8.6,1.4s-.2,1-.6,1.4c-.4.4-.8.5-1.4.5Z"/>
      <path class="cls-4" d="M203.4,85.8c-.6,0-1-.2-1.4-.5-.4-.4-.6-.8-.6-1.4s.2-1,.6-1.4c.4-.4.8-.5,1.4-.5s1,.2,1.4.5c.4.4.6.8.6,1.4s-.2,1-.6,1.4c-.4.4-.8.5-1.4.5Z"/>
      <path class="cls-4" d="M210.7,85.5v-1.2l3.6-3.7c.5-.6,1-1.1,1.2-1.5s.4-.8.4-1.3-.2-.9-.5-1.2-.8-.5-1.3-.5-1,.2-1.3.5-.5.8-.5,1.4h-1.5c0-.6.1-1.2.4-1.7s.7-.9,1.2-1.1,1.1-.4,1.8-.4,1.3,0,1.8.4.9.6,1.2,1.1.4,1,.4,1.5,0,.8-.2,1.1-.4.8-.8,1.2-.9,1-1.5,1.7l-2.1,2.2h4.7v1.4h-7,0Z"/>
      <path class="cls-4" d="M223.3,85.7c-1.2,0-2.2-.5-2.9-1.4s-1-2.3-1-4,.3-3,1-4,1.6-1.4,2.9-1.4,2.2.5,2.9,1.4,1,2.3,1,4-.3,3-1,4-1.6,1.4-2.9,1.4ZM223.3,84.3c.7,0,1.3-.4,1.7-1.1s.6-1.7.6-3-.2-2.3-.6-3-1-1.1-1.7-1.1-1.3.4-1.7,1.1-.6,1.7-.6,3,.2,2.3.6,3,1,1.1,1.7,1.1Z"/>
      <path class="cls-4" d="M229,85.5v-1.2l3.6-3.7c.5-.6,1-1.1,1.2-1.5s.4-.8.4-1.3-.2-.9-.5-1.2-.8-.5-1.3-.5-1,.2-1.3.5-.5.8-.5,1.4h-1.5c0-.6.1-1.2.4-1.7s.7-.9,1.2-1.1,1.1-.4,1.8-.4,1.3,0,1.8.4.9.6,1.2,1.1.4,1,.4,1.5,0,.8-.2,1.1-.4.8-.8,1.2-.9,1-1.5,1.7l-2.1,2.2h4.7v1.4h-7,0Z"/>
      <path class="cls-4" d="M237.5,83.5v-1.3l4.5-7.2h2v7.1h1.4v1.4h-1.4v2.1h-1.5v-2.1h-5ZM242.5,82.1v-5.2h0l-3.2,5.1h3.3-.1Z"/>
      <path class="cls-4" d="M94.6,103c-.5,0-.9,0-1.3-.4s-.7-.6-.9-1.1-.3-1-.3-1.6,0-1.2.3-1.6.5-.8.9-1.1.8-.4,1.3-.4.7,0,.9.2.4.3.5.4.2.3.3.4h0v-2.9h1v7.9h-.9v-.9h0c0,0-.2.2-.3.4,0,.2-.3.3-.5.4s-.5.2-.9.2h0ZM94.7,102.1c.5,0,1-.2,1.2-.6s.4-1,.4-1.6,0-1.2-.4-1.6-.7-.6-1.2-.6-.7,0-.9.3-.4.5-.6.8c0,.3-.2.7-.2,1.1s0,.8.2,1.1c0,.3.3.6.6.8.3.2.6.3.9.3h0Z"/>
      <path class="cls-4" d="M99.5,95.9c-.2,0-.3,0-.5-.2s-.2-.3-.2-.4,0-.3.2-.4c0,0,.3-.2.5-.2s.3,0,.5.2.2.3.2.4,0,.3-.2.4-.3.2-.5.2ZM99,102.9v-5.9h1v5.9h-1Z"/>
      <path class="cls-4" d="M101.6,102.9v-5.9h.9v.9h0c0-.3.3-.5.6-.7s.6-.3,1-.3.2,0,.3,0h.2v1h-.6c-.4,0-.8,0-1.1.4-.3.3-.4.6-.4,1v3.7h-1,0Z"/>
      <path class="cls-4" d="M108,103c-.6,0-1.1,0-1.5-.4s-.7-.6-1-1.1-.3-1-.3-1.6,0-1.1.3-1.6.5-.8.9-1.1.9-.4,1.4-.4.6,0,.9.2.6.3.8.5c.2.2.4.5.6.9s.2.8.2,1.4v.4h-4.3c0,.6.2,1.1.5,1.4s.8.5,1.3.5.7,0,.9-.2c.3-.2.4-.4.5-.7l.9.3c0,.4-.4.8-.8,1.1s-.9.4-1.5.4h.2ZM106.2,99.4h3.3c0-.5-.2-.9-.5-1.2s-.7-.5-1.1-.5-.6,0-.9.2-.4.4-.6.6-.2.5-.2.8h0Z"/>
      <path class="cls-4" d="M114.3,103c-.5,0-1,0-1.4-.4s-.7-.6-.9-1.1-.3-1-.3-1.6,0-1.2.3-1.6c.2-.5.5-.8.9-1.1s.9-.4,1.4-.4,1.1,0,1.5.4.7.7.9,1.2l-.9.3c0-.3-.3-.6-.5-.8-.3-.2-.6-.3-1-.3s-.7,0-1,.3c-.3.2-.4.5-.6.8s-.2.7-.2,1.1,0,.8.2,1.1c0,.3.3.6.6.8s.6.3,1,.3.7,0,1-.3.4-.5.5-.8l.9.3c-.2.5-.5.9-.9,1.2s-.9.4-1.5.4v.2Z"/>
      <path class="cls-4" d="M120.4,96.9v.8h-1.2v3.6c0,.3,0,.5.2.6,0,0,.3.2.5.2h.5l.2.8h-.7c-.5,0-.9,0-1.2-.4-.3-.3-.4-.6-.4-1.1v-3.7h-.9v-.8h.9v-1.4h1v1.4h1.2,0Z"/>
      <path class="cls-4" d="M124,103c-.6,0-1.1,0-1.5-.4s-.7-.6-1-1.1-.3-1-.3-1.6,0-1.1.3-1.6.5-.8.9-1.1.9-.4,1.4-.4.6,0,.9.2.6.3.8.5c.2.2.4.5.6.9s.2.8.2,1.4v.4h-4.3c0,.6.2,1.1.5,1.4s.8.5,1.3.5.7,0,.9-.2c.3-.2.4-.4.5-.7l.9.3c0,.4-.4.8-.8,1.1s-.9.4-1.5.4h.2ZM122.2,99.4h3.3c0-.5-.2-.9-.5-1.2s-.7-.5-1.1-.5-.6,0-.9.2-.4.4-.6.6-.2.5-.2.8h0Z"/>
      <path class="cls-4" d="M130.1,103c-.5,0-.9,0-1.3-.4s-.7-.6-.9-1.1-.3-1-.3-1.6,0-1.2.3-1.6.5-.8.9-1.1.8-.4,1.3-.4.7,0,.9.2.4.3.5.4.2.3.3.4h0v-2.9h1v7.9h-.9v-.9h-.1c0,0-.2.2-.3.4-.1.2-.3.3-.5.4s-.5.2-.9.2h0ZM130.2,102.1c.5,0,1-.2,1.2-.6s.4-1,.4-1.6-.1-1.2-.4-1.6-.7-.6-1.2-.6-.7,0-.9.3-.4.5-.6.8c-.1.3-.2.7-.2,1.1s0,.8.2,1.1c.1.3.3.6.6.8.3.2.6.3.9.3h0Z"/>
      <path class="cls-4" d="M140.3,103c-.4,0-.7,0-.9-.2-.2,0-.4-.3-.5-.4-.1-.2-.2-.3-.3-.4h-.1v.9h-.9v-7.9h1v2.9h0c0,0,.2-.2.3-.4s.3-.3.5-.4.5-.2.9-.2.9,0,1.3.4.7.6.9,1.1.3,1,.3,1.6-.1,1.2-.3,1.6-.5.8-.9,1.1-.8.4-1.3.4h0ZM140.2,102.1c.4,0,.7,0,.9-.3.2-.2.4-.5.6-.8.1-.3.2-.7.2-1.1s0-.8-.2-1.1c-.1-.3-.3-.6-.6-.8s-.6-.3-.9-.3c-.5,0-1,.2-1.2.6s-.4.9-.4,1.6.1,1.2.4,1.6.7.6,1.2.6h0Z"/>
      <path class="cls-4" d="M143.9,105l.2-.8h.1c.3,0,.5,0,.8,0,.2,0,.4-.4.5-.8l.2-.5-2.3-6h1l1.3,3.5c0,.3.2.5.2.8s.1.5.2.8c0-.2.1-.5.2-.8s.2-.5.2-.8l1.3-3.5h1l-2.6,6.8c-.2.5-.4.8-.7,1s-.6.3-1.1.3-.3,0-.4,0h-.3.2Z"/>
      <path class="cls-4" d="M156.5,103c-.7,0-1.3-.2-1.9-.5s-.9-.8-1.2-1.4-.4-1.3-.4-2.2.1-1.6.4-2.2.7-1.1,1.2-1.4,1.1-.5,1.8-.5,1.1,0,1.5.3c.5.2.8.5,1.1.9s.5.8.6,1.4h-1c-.2-.5-.4-.9-.8-1.2s-.8-.4-1.4-.4-.9,0-1.3.4c-.4.2-.7.6-.9,1.1s-.3,1-.3,1.7.1,1.2.3,1.7.5.8.9,1.1.8.4,1.3.4.8,0,1.2-.3.6-.4.8-.8.3-.7.3-1.2h-2v-.9h3v.9c0,.7-.1,1.2-.4,1.7s-.7.9-1.1,1.1-1,.4-1.7.4h0Z"/>
      <path class="cls-4" d="M163.8,103c-.6,0-1.1,0-1.5-.4s-.7-.6-1-1.1c-.2-.5-.3-1-.3-1.6s.1-1.1.3-1.6.5-.8.9-1.1c.4-.3.9-.4,1.4-.4s.6,0,.9.2.6.3.8.5.4.5.6.9.2.8.2,1.4v.4h-4.3c0,.6.2,1.1.5,1.4s.8.5,1.3.5.7,0,.9-.2c.3-.2.4-.4.5-.7l.9.3c-.1.4-.4.8-.8,1.1-.4.3-.9.4-1.5.4h.2ZM162,99.4h3.3c0-.5-.2-.9-.5-1.2-.3-.3-.7-.5-1.1-.5s-.6,0-.9.2c-.2.2-.4.4-.6.6s-.2.5-.2.8h0Z"/>
      <path class="cls-4" d="M170.1,103c-.5,0-1,0-1.4-.4s-.7-.6-.9-1.1-.3-1-.3-1.6.1-1.2.3-1.6c.2-.5.5-.8.9-1.1s.9-.4,1.4-.4,1,0,1.4.4.7.6,1,1.1c.2.5.3,1,.3,1.6s-.1,1.1-.3,1.6-.5.8-1,1.1-.9.4-1.4.4ZM170.1,102.1c.4,0,.7,0,1-.3s.4-.5.6-.8c.1-.3.2-.7.2-1.1s0-.8-.2-1.1-.3-.6-.6-.8c-.3-.2-.6-.3-1-.3s-.7,0-1,.3c-.3.2-.4.5-.6.8s-.2.7-.2,1.1,0,.8.2,1.1c.1.3.3.6.6.8s.6.3,1,.3Z"/>
      <path class="cls-4" d="M174.2,102.9v-5.9h.9v.9h0c.1-.3.3-.5.6-.7s.6-.3,1-.3.2,0,.3,0h.2v1h-.6c-.4,0-.8,0-1.1.4s-.4.6-.4,1v3.7h-1,0Z"/>
      <path class="cls-4" d="M180.5,105.2c-.7,0-1.2,0-1.6-.4s-.7-.5-.9-.8l.8-.5c0,0,.2.2.3.4s.3.3.5.4c.2,0,.5,0,.8,0s.9,0,1.2-.3c.3-.2.5-.6.5-1.1v-1.2h0c0,0-.2.2-.3.4-.1.2-.3.3-.5.4s-.5.2-.9.2-.9,0-1.3-.3-.7-.6-.9-1-.3-1-.3-1.6.1-1.1.3-1.6.5-.8.9-1,.8-.4,1.3-.4.7,0,.9.2c.2,0,.4.3.5.4s.2.3.3.4h0v-1h.9v6.1c0,.5-.1.9-.3,1.2-.2.3-.5.6-.9.7-.4.2-.8.2-1.3.2h0ZM180.4,101.9c.5,0,1-.2,1.2-.5.3-.4.4-.9.4-1.5s-.1-1.1-.4-1.5c-.3-.4-.7-.6-1.2-.6s-.7,0-.9.3-.4.4-.6.8-.2.7-.2,1.1c0,.6.1,1.1.4,1.5s.7.6,1.3.6v-.2Z"/>
      <path class="cls-4" d="M187.2,103c-.6,0-1.1,0-1.5-.4s-.7-.6-1-1.1c-.2-.5-.3-1-.3-1.6s.1-1.1.3-1.6.5-.8.9-1.1c.4-.3.9-.4,1.4-.4s.6,0,.9.2.6.3.8.5.4.5.6.9.2.8.2,1.4v.4h-4.3c0,.6.2,1.1.5,1.4s.8.5,1.3.5.7,0,.9-.2c.3-.2.4-.4.5-.7l.9.3c-.1.4-.4.8-.8,1.1-.4.3-.9.4-1.5.4h.2ZM185.4,99.4h3.3c0-.5-.2-.9-.5-1.2-.3-.3-.7-.5-1.1-.5s-.6,0-.9.2c-.2.2-.4.4-.6.6s-.2.5-.2.8h0Z"/>
      <path class="cls-4" d="M194.2,102.9v-7.9h1.4l1.9,5c0,.2.2.5.3.8s.2.7.3,1c0-.3.2-.6.3-1,.1-.3.2-.6.3-.8l1.9-5h1.4v7.9h-1v-6.8c-.1.5-.3.9-.4,1.3-.1.4-.3.8-.4,1l-1.8,4.5h-.9l-1.8-4.5c0-.2-.2-.5-.3-1-.1-.4-.3-.9-.4-1.3v6.8h-1,.2Z"/>
      <path class="cls-4" d="M204.4,95.9c-.2,0-.3,0-.5-.2s-.2-.3-.2-.4,0-.3.2-.4c.1,0,.3-.2.5-.2s.3,0,.5.2c.1,0,.2.3.2.4s0,.3-.2.4-.3.2-.5.2ZM204,102.9v-5.9h1v5.9h-1Z"/>
      <path class="cls-4" d="M207.5,94.9v7.9h-1v-7.9h1Z"/>
      <path class="cls-4" d="M210.2,94.9v7.9h-1v-7.9h1Z"/>
      <path class="cls-4" d="M214.3,103c-.6,0-1.1,0-1.5-.4s-.7-.6-1-1.1c-.2-.5-.3-1-.3-1.6s.1-1.1.3-1.6.5-.8.9-1.1c.4-.3.9-.4,1.4-.4s.6,0,.9.2.6.3.8.5.4.5.6.9.2.8.2,1.4v.4h-4.3c0,.6.2,1.1.5,1.4s.8.5,1.3.5.7,0,.9-.2c.3-.2.4-.4.5-.7l.9.3c-.1.4-.4.8-.8,1.1-.4.3-.9.4-1.5.4h.2ZM212.5,99.4h3.3c0-.5-.2-.9-.5-1.2-.3-.3-.7-.5-1.1-.5s-.6,0-.9.2c-.2.2-.4.4-.6.6s-.2.5-.2.8h0Z"/>
      <path class="cls-4" d="M218.2,102.9v-5.9h.9v.9h0c.1-.3.3-.5.6-.7s.6-.3,1-.3.2,0,.3,0h.2v1h-.6c-.4,0-.8,0-1.1.4s-.4.6-.4,1v3.7h-1,0Z"/>
    </g>
  </g>
</svg>