<?xml version="1.0" encoding="UTF-8"?>
<svg id="Layer_1" data-name="Layer 1" xmlns="http://www.w3.org/2000/svg" version="1.1" viewBox="0 0 308 154">
  <defs>
    <style>
      .cls-1 {
        fill: #0d3a60;
        isolation: isolate;
        opacity: .8;
      }

      .cls-1, .cls-2 {
        stroke-width: 0px;
      }

      .cls-2 {
        fill: #b5cce2;
      }
    </style>
  </defs>
  <path class="cls-2" d="M308,138.3v-7.5c-3.3,0-6-2.7-6-6s2.7-6,6-6v-7c-3.3,0-6-2.7-6-6s2.7-6,6-6v-7c-3.3,0-6-2.7-6-6s2.7-6,6-6v-7c-3.3,0-6-2.7-6-6s2.7-6,6-6v-7c-3.3,0-6-2.7-6-6s2.7-6,6-6v-7c-3.3,0-6-2.7-6-6s2.7-6,6-6v-7.5c-8.7,0-15.7-7-15.7-15.7H15.7c0,8.7-7,15.7-15.7,15.7v7.5c3.3,0,6,2.7,6,6s-2.7,6-6,6v7c3.3,0,6,2.7,6,6s-2.7,6-6,6v7c3.3,0,6,2.7,6,6s-2.7,6-6,6v7c3.3,0,6,2.7,6,6s-2.7,6-6,6v7c3.3,0,6,2.7,6,6s-2.7,6-6,6v7c3.3,0,6,2.7,6,6s-2.7,6-6,6v7.5c8.7,0,15.7,7,15.7,15.7h276.6c0-8.7,7-15.7,15.7-15.7h0Z"/>
  <path class="cls-1" d="M270.9,142.2H37.1c-8.1,0-14.8-6.6-14.8-14.8V26.6c0-8.1,6.6-14.8,14.8-14.8h233.7c8.1,0,14.8,6.6,14.8,14.8v100.9c0,8.1-6.6,14.8-14.8,14.8h.1ZM37.1,12.3c-7.9,0-14.2,6.4-14.2,14.2v100.9c0,7.9,6.4,14.2,14.2,14.2h233.7c7.9,0,14.2-6.4,14.2-14.2V26.6c0-7.9-6.4-14.2-14.2-14.2H37.1Z"/>
</svg>