<?xml version="1.0" encoding="UTF-8"?>
<svg id="Layer_1" data-name="Layer 1" xmlns="http://www.w3.org/2000/svg" xmlns:xlink="http://www.w3.org/1999/xlink" version="1.1" viewBox="0 0 120 72">
  <defs>
    <style>
      .cls-1 {
        mask: url(#mask);
      }

      .cls-2, .cls-3 {
        fill: #163741;
      }

      .cls-2, .cls-3, .cls-4, .cls-5, .cls-6, .cls-7 {
        stroke-width: 0px;
      }

      .cls-3, .cls-6 {
        fill-rule: evenodd;
      }

      .cls-4 {
        fill: #163741;
      }

      .cls-5 {
        fill: #ADD6E3;
      }

      .cls-6, .cls-7 {
        fill: #fff;
      }

      .cls-8 {
        mask: url(#mask-1);
      }
    </style>
    <mask id="mask" x="-1.8" y="-2.1" width="123.4" height="75.8" maskUnits="userSpaceOnUse">
      <g id="path-1-inside-1_4005_300" data-name="path-1-inside-1 4005 300">
        <path class="cls-6" d="M4.5,17.3c-2.2.3-3.7,2.4-3.3,4.6l2.3,14.1c0,0,.1,0,.2,0,4.6-.7,8.9,2.4,9.7,7,.7,4.6-2.4,8.9-7,9.7,0,0-.1,0-.2,0l2.4,14.7c.3,2.2,2.4,3.7,4.6,3.3l102.1-16.3c2.2-.3,3.7-2.4,3.3-4.6l-2.4-15c-.2,0-.4,0-.5.1-4.6.7-8.9-2.4-9.7-7-.7-4.6,2.4-8.9,7-9.7.2,0,.4,0,.5,0l-2.2-13.9c-.3-2.2-2.4-3.7-4.6-3.3L4.5,17.3Z"/>
      </g>
    </mask>
    <mask id="mask-1" x="19.6" y="9.4" width="80.3" height="52.8" maskUnits="userSpaceOnUse">
      <g id="path-3-inside-2_4005_300" data-name="path-3-inside-2 4005 300">
        <rect class="cls-7" x="24.9" y="17.5" width="69.9" height="36.7" rx="1.5" ry="1.5" transform="translate(-4.9 9.9) rotate(-9.1)"/>
      </g>
    </mask>
  </defs>
  <path class="cls-3" d="M4.5,17.3c-2.2.3-3.7,2.4-3.3,4.6l2.3,14.1c0,0,.1,0,.2,0,4.6-.7,8.9,2.4,9.7,7,.7,4.6-2.4,8.9-7,9.7,0,0-.1,0-.2,0l2.4,14.7c.3,2.2,2.4,3.7,4.6,3.3l102.1-16.3c2.2-.3,3.7-2.4,3.3-4.6l-2.4-15c-.2,0-.4,0-.5.1-4.6.7-8.9-2.4-9.7-7-.7-4.6,2.4-8.9,7-9.7.2,0,.4,0,.5,0l-2.2-13.9c-.3-2.2-2.4-3.7-4.6-3.3L4.5,17.3Z"/>
  <g class="cls-1">
    <path class="cls-5" d="M1.2,21.8l-3,.5,3-.5ZM4.5,17.3l-.5-3,.5,3ZM3.5,36l-3,.5,3.5,2.5-.5-3ZM6.1,52.6l-.4-3-2.5,3.4,3-.5ZM116.1,34.7l3-.5-3.6-2.5.7,2.9ZM113.4,18.1l.3,3,2.7-3.5-3,.5ZM106.6.9l.5,3-.5-3ZM4.2,21.4c0-.5.3-1.1.8-1.1l-.9-5.9c-3.8.6-6.4,4.2-5.8,8l5.9-.9ZM6.4,35.5l-2.3-14.1-5.9.9,2.3,14.1,5.9-.9ZM3.1,33c0,0-.1,0-.2,0l1.1,5.9s0,0,0,0l-.9-5.9ZM16.2,42.5c-1-6.2-6.9-10.5-13.1-9.5l.9,5.9c3-.5,5.7,1.5,6.2,4.5l5.9-.9ZM6.8,55.6c6.2-1,10.5-6.9,9.5-13.1l-5.9.9c.5,3-1.5,5.7-4.5,6.2l.9,5.9ZM6.6,55.6c0,0,.1,0,.2,0l-.9-5.9s0,0,0,0l.8,5.9ZM11.4,66.9l-2.4-14.7-5.9.9,2.4,14.7,5.9-.9ZM12.6,67.7c-.5,0-1.1-.3-1.1-.8l-5.9.9c.6,3.8,4.2,6.4,8,5.8l-.9-5.9ZM114.7,51.3L12.6,67.7l.9,5.9,102.1-16.3-.9-5.9ZM115.5,50.2c0,.5-.3,1.1-.8,1.1l.9,5.9c3.8-.6,6.4-4.2,5.8-8l-5.9.9ZM113.1,35.2l2.4,15,5.9-.9-2.4-15-5.9.9ZM116,37.8c.2,0,.5,0,.7-.1l-1.3-5.9c-.1,0-.2,0-.4,0l.9,5.9ZM102.9,28.3c1,6.2,6.9,10.5,13.1,9.5l-.9-5.9c-3,.5-5.7-1.5-6.2-4.5l-5.9.9ZM112.4,15.2c-6.2,1-10.5,6.9-9.5,13.1l5.9-.9c-.5-3,1.5-5.7,4.5-6.2l-.9-5.9ZM113.1,15.1c-.2,0-.5,0-.7,0l.9,5.9c.1,0,.2,0,.4,0l-.6-6ZM108.2,4.7l2.2,13.9,5.9-.9-2.2-13.9-5.9.9ZM107.1,3.9c.5,0,1.1.3,1.1.8l5.9-.9c-.6-3.8-4.2-6.4-8-5.8l.9,5.9ZM5,20.2L107.1,3.9l-.9-5.9L4,14.3l.9,5.9Z"/>
  </g>
  <g class="cls-8">
    <g>
      <rect class="cls-4" x="24.9" y="17.5" width="69.9" height="36.7" rx="1.5" ry="1.5" transform="translate(-4.9 9.9) rotate(-9.1)"/>
      <path class="cls-5" d="M29.4,62.2c-.9,0-1.9-.3-2.6-.9-1-.7-1.6-1.7-1.8-2.9l-5.3-33.2c-.4-2.5,1.3-4.8,3.7-5.2h0l66-10.6c1.2-.2,2.4,0,3.3.8s1.6,1.7,1.8,2.9l5.3,33.2c.4,2.4-1.3,4.8-3.7,5.2l-66,10.6c-.2,0-.5,0-.7,0ZM25.8,25.7l4.8,30.3,63.1-10.1-4.8-30.3-63.1,10.1ZM24.4,26h0s0,0,0,0h0Z"/>
    </g>
  </g>
  <g>
    <path class="cls-2" d="M57,24.2c.1-.4.7-.5.9-.1l4.1,6.1c0,.1.3.2.4.2l7.4-.3c.4,0,.7.5.4.8l-4.6,5.8c-.1.1-.1.3,0,.5l2.6,6.9c.1.4-.2.8-.6.6l-6.9-2.5c-.2,0-.3,0-.5,0l-5.8,4.6c-.3.3-.8,0-.8-.4l.3-7.4c0-.2,0-.3-.2-.4l-6.2-4.1c-.4-.2-.3-.8.1-.9l7.1-2c.2,0,.3-.2.3-.3l2-7.1Z"/>
    <path class="cls-5" d="M54,48.5c-.3,0-.6,0-.9-.2-.7-.4-1.1-1.1-1.1-1.9l.3-6.8-5.7-3.8c-.6-.4-1-1.2-.9-2,.1-.8.7-1.4,1.4-1.6l6.6-1.9,1.8-6.6c.2-.7.8-1.3,1.6-1.4.8-.1,1.5.2,2,.9l3.8,5.7,6.8-.3c.8,0,1.5.4,1.9,1.1.4.7.3,1.5-.2,2.1l-4.2,5.4,2.4,6.4c.3.7,0,1.6-.5,2.1-.5.6-1.4.7-2.1.5l-6.4-2.4-5.4,4.2c-.4.3-.8.4-1.2.4ZM50,34.5l4.3,2.9c.6.4.9,1,.9,1.7l-.2,5.2,4.1-3.2c.5-.4,1.3-.5,1.9-.3l4.9,1.8-1.8-4.9c-.2-.7-.1-1.4.3-1.9l3.2-4.1-5.2.2c-.7,0-1.3-.3-1.7-.9l-2.9-4.3-1.4,5c-.2.7-.7,1.2-1.4,1.4l-5,1.4ZM60,43.7s0,0,0,0h0ZM61,43.5h0s0,0,0,0Z"/>
  </g>
</svg>