<svg width="120" height="72" viewBox="0 0 120 72" fill="none" xmlns="http://www.w3.org/2000/svg">
<mask id="path-1-inside-1_4005_300" fill="white">
<path fill-rule="evenodd" clip-rule="evenodd" d="M4.52131 17.2635C2.33994 17.6127 0.854664 19.6641 1.20385 21.8455L3.46663 35.9812C3.51694 35.9722 3.56743 35.9636 3.6181 35.9555C8.21401 35.2198 12.5361 38.3492 13.2718 42.9451C14.0075 47.541 10.8782 51.8631 6.28228 52.5988C6.23161 52.6069 6.18097 52.6146 6.13038 52.6217L8.48439 67.3274C8.83357 69.5087 10.885 70.994 13.0664 70.6448L115.168 54.3009C117.349 53.9517 118.834 51.9003 118.485 49.719L116.081 34.7017C115.904 34.7419 115.724 34.7767 115.542 34.8059C110.944 35.5418 106.621 32.4116 105.885 27.8143C105.149 23.2171 108.279 18.8937 112.877 18.1578C113.059 18.1287 113.241 18.1056 113.422 18.0884L111.204 4.23706C110.855 2.05569 108.804 0.570409 106.622 0.919593L4.52131 17.2635Z"/>
</mask>
<path fill-rule="evenodd" clip-rule="evenodd" d="M4.52131 17.2635C2.33994 17.6127 0.854664 19.6641 1.20385 21.8455L3.46663 35.9812C3.51694 35.9722 3.56743 35.9636 3.6181 35.9555C8.21401 35.2198 12.5361 38.3492 13.2718 42.9451C14.0075 47.541 10.8782 51.8631 6.28228 52.5988C6.23161 52.6069 6.18097 52.6146 6.13038 52.6217L8.48439 67.3274C8.83357 69.5087 10.885 70.994 13.0664 70.6448L115.168 54.3009C117.349 53.9517 118.834 51.9003 118.485 49.719L116.081 34.7017C115.904 34.7419 115.724 34.7767 115.542 34.8059C110.944 35.5418 106.621 32.4116 105.885 27.8143C105.149 23.2171 108.279 18.8937 112.877 18.1578C113.059 18.1287 113.241 18.1056 113.422 18.0884L111.204 4.23706C110.855 2.05569 108.804 0.570409 106.622 0.919593L4.52131 17.2635Z" fill="#FFD6C6"/>
<path d="M1.20385 21.8455L-1.75844 22.3197L1.20385 21.8455ZM4.52131 17.2635L4.04712 14.3012L4.52131 17.2635ZM3.46663 35.9812L0.504341 36.4554L3.9937 38.9345L3.46663 35.9812ZM6.13038 52.6217L5.70911 49.6515L3.16809 53.0959L6.13038 52.6217ZM116.081 34.7017L119.043 34.2275L115.418 31.7759L116.081 34.7017ZM113.422 18.0884L113.705 21.075L116.384 17.6142L113.422 18.0884ZM106.622 0.919593L107.097 3.88188L106.622 0.919593ZM4.16613 21.3713C4.07884 20.8259 4.45016 20.3131 4.9955 20.2258L4.04712 14.3012C0.229726 14.9123 -2.36951 18.5023 -1.75844 22.3197L4.16613 21.3713ZM6.42892 35.507L4.16613 21.3713L-1.75844 22.3197L0.504341 36.4554L6.42892 35.507ZM3.14391 32.9932C3.07562 33.0042 3.0075 33.0157 2.93956 33.0278L3.9937 38.9345C4.02637 38.9287 4.05924 38.9231 4.09229 38.9178L3.14391 32.9932ZM16.2341 42.4709C15.2365 36.2389 9.37585 31.9957 3.14391 32.9932L4.09229 38.9178C7.05217 38.444 9.83573 40.4594 10.3095 43.4193L16.2341 42.4709ZM6.75647 55.5611C12.9884 54.5635 17.2317 48.7028 16.2341 42.4709L10.3095 43.4193C10.7833 46.3792 8.76798 49.1627 5.80809 49.6365L6.75647 55.5611ZM6.55164 55.592C6.61976 55.5823 6.68804 55.572 6.75647 55.5611L5.80809 49.6365C5.77519 49.6418 5.74219 49.6468 5.70911 49.6515L6.55164 55.592ZM11.4467 66.8532L9.09266 52.1475L3.16809 53.0959L5.5221 67.8016L11.4467 66.8532ZM12.5922 67.6825C12.0468 67.7698 11.534 67.3985 11.4467 66.8532L5.5221 67.8016C6.13317 71.6189 9.72314 74.2182 13.5405 73.6071L12.5922 67.6825ZM114.693 51.3386L12.5922 67.6825L13.5405 73.6071L115.642 57.2632L114.693 51.3386ZM115.523 50.1931C115.61 50.7385 115.239 51.2513 114.693 51.3386L115.642 57.2632C119.459 56.6521 122.058 53.0622 121.447 49.2448L115.523 50.1931ZM113.119 35.1759L115.523 50.1931L121.447 49.2448L119.043 34.2275L113.119 35.1759ZM116.016 37.7682C116.261 37.7288 116.504 37.6819 116.744 37.6274L115.418 31.7759C115.303 31.802 115.186 31.8246 115.067 31.8436L116.016 37.7682ZM102.923 28.2885C103.921 34.5218 109.782 38.766 116.016 37.7682L115.067 31.8436C112.106 32.3176 109.321 30.3014 108.847 27.3401L102.923 28.2885ZM112.402 15.1955C106.169 16.1933 101.925 22.0553 102.923 28.2885L108.847 27.3401C108.373 24.3789 110.39 21.5941 113.351 21.1201L112.402 15.1955ZM113.139 15.1018C112.894 15.125 112.648 15.1562 112.402 15.1955L113.351 21.1201C113.47 21.1011 113.588 21.0861 113.705 21.075L113.139 15.1018ZM108.242 4.71125L110.459 18.5626L116.384 17.6142L114.167 3.76287L108.242 4.71125ZM107.097 3.88188C107.642 3.79458 108.155 4.1659 108.242 4.71125L114.167 3.76287C113.556 -0.0545204 109.966 -2.65377 106.148 -2.04269L107.097 3.88188ZM4.9955 20.2258L107.097 3.88188L106.148 -2.04269L4.04712 14.3012L4.9955 20.2258Z" fill="#FF692E" mask="url(#path-1-inside-1_4005_300)"/>
<mask id="path-3-inside-2_4005_300" fill="white">
<rect x="22.4062" y="23.2349" width="69.8581" height="36.669" rx="1.5" transform="rotate(-9.09 22.4062 23.2349)"/>
</mask>
<rect x="22.4062" y="23.2349" width="69.8581" height="36.669" rx="1.5" transform="rotate(-9.09 22.4062 23.2349)" fill="#F3F2EA" stroke="#FF692E" stroke-width="6" stroke-linejoin="round" mask="url(#path-3-inside-2_4005_300)"/>
<path d="M56.9646 24.2038C57.0798 23.793 57.6235 23.706 57.8612 24.0603L61.9799 30.1997C62.0768 30.3441 62.2418 30.4278 62.4155 30.4207L69.8024 30.1198C70.2287 30.1024 70.4795 30.5927 70.216 30.9282L65.6498 36.7425C65.5424 36.8793 65.5138 37.062 65.5742 37.2251L68.143 44.1574C68.2913 44.5575 67.9026 44.9475 67.502 44.8006L60.5612 42.2546C60.398 42.1947 60.2153 42.224 60.0789 42.3318L54.2797 46.9171C53.945 47.1818 53.454 46.9326 53.4699 46.5062L53.7465 39.1184C53.753 38.9446 53.6687 38.78 53.524 38.6836L47.371 34.5851C47.0159 34.3486 47.1012 33.8046 47.5116 33.688L54.6233 31.6681C54.7906 31.6206 54.9211 31.4895 54.9681 31.3221L56.9646 24.2038Z" fill="#FFD6C6" stroke="#FF692E" stroke-width="3"/>
</svg>
