<?xml version="1.0" encoding="UTF-8"?>
<svg id="Layer_1" data-name="Layer 1" xmlns="http://www.w3.org/2000/svg" version="1.1" viewBox="0 0 302 131.8">
  <defs>
    <style>
      .cls-1 {
        fill: #255e6d;
      }

      .cls-1, .cls-2, .cls-3 {
        stroke-width: 0px;
      }

      .cls-2 {
        fill: #add6e3;
      }

      .cls-3 {
        display: none;
        fill: #0d3a60;
        isolation: isolate;
        opacity: .8;
      }
    </style>
  </defs>
  <path class="cls-2" d="M302,116.4v-7.4c-3.2,0-5.9-2.6-5.9-5.9s2.6-5.9,5.9-5.9v-6.9c-3.2,0-5.9-2.6-5.9-5.9s2.6-5.9,5.9-5.9v-6.9c-3.2,0-5.9-2.6-5.9-5.9s2.6-5.9,5.9-5.9v-6.9c-3.2,0-5.9-2.6-5.9-5.9s2.6-5.9,5.9-5.9v-6.9c-3.2,0-5.9-2.6-5.9-5.9s2.6-5.9,5.9-5.9v-7.4c-8.5,0-15.4-6.9-15.4-15.4H15.4c0,8.5-6.9,15.4-15.4,15.4v7.4c3.2,0,5.9,2.6,5.9,5.9s-2.6,5.9-5.9,5.9v6.9c3.2,0,5.9,2.6,5.9,5.9s-2.6,5.9-5.9,5.9v6.9c3.2,0,5.9,2.6,5.9,5.9s-2.6,5.9-5.9,5.9v6.9c3.2,0,5.9,2.6,5.9,5.9s-2.6,5.9-5.9,5.9v6.9c3.2,0,5.9,2.6,5.9,5.9s-2.6,5.9-5.9,5.9v7.4c8.5,0,15.4,6.9,15.4,15.4h271.2c0-8.5,6.9-15.4,15.4-15.4h0Z"/>
  <path class="cls-3" d="M267.9,121.3H34.1c-8.1,0-14.8-6.6-14.8-14.8V24.7c0-8.1,6.6-14.8,14.8-14.8h233.7c8.1,0,14.8,6.6,14.8,14.8v81.9c0,8.1-6.6,14.8-14.8,14.8h.1ZM34.1,10.4c-7.9,0-14.2,6.4-14.2,14.2v81.9c0,7.9,6.4,14.2,14.2,14.2h233.7c7.9,0,14.2-6.4,14.2-14.2V24.7c0-7.9-6.4-14.2-14.2-14.2H34.1Z"/>
  <path class="cls-1" d="M262,10.4c10.8,0,19.5,8.7,19.5,19.5v72c0,10.8-8.7,19.5-19.5,19.5H40c-10.8,0-19.5-8.7-19.5-19.5V29.9c0-10.8,8.7-19.5,19.5-19.5h222M262,9.9H40c-11,0-20,9-20,20v72c0,11,9,20,20,20h222c11,0,20-9,20-20V29.9c0-11-9-20-20-20h0Z"/>
</svg>